<svg xmlns="http://www.w3.org/2000/svg" width="100" height="100" viewBox="0 0 100 100">
  <title>鲜花</title>
  <circle cx="50" cy="50" r="20" fill="#ff6b6b"/>
  <circle cx="50" cy="50" r="15" fill="#ff9e9e"/>
  <circle cx="50" cy="50" r="10" fill="#ffce89"/>
  <path d="M50,70 L50,90" stroke="#3a7d44" stroke-width="3" stroke-linecap="round"/>
  <path d="M50,30 C60,20 70,30 65,40" fill="none" stroke="#3a7d44" stroke-width="2"/>
  <path d="M50,30 C40,20 30,30 35,40" fill="none" stroke="#3a7d44" stroke-width="2"/>
  <path d="M30,50 C20,40 30,30 40,35" fill="none" stroke="#3a7d44" stroke-width="2"/>
  <path d="M70,50 C80,40 70,30 60,35" fill="none" stroke="#3a7d44" stroke-width="2"/>
  <path d="M30,50 C20,60 30,70 40,65" fill="none" stroke="#3a7d44" stroke-width="2"/>
  <path d="M70,50 C80,60 70,70 60,65" fill="none" stroke="#3a7d44" stroke-width="2"/>
</svg>